<svg width="743" height="698" viewBox="0 0 743 698" fill="none" xmlns="http://www.w3.org/2000/svg">
<g filter="url(#filter0_d_15_795)">
<rect x="20" y="16" width="703" height="658" rx="10" fill="white"/>
</g>
<circle cx="86" cy="118" r="35" fill="#50A95E"/>
<path d="M79.652 128C78.764 128 78.08 127.772 77.6 127.316C77.144 126.836 76.916 126.164 76.916 125.3C76.916 124.436 77.144 123.776 77.6 123.32C78.08 122.864 78.764 122.636 79.652 122.636H82.892V107.912H85.916L80.696 111.116C80.072 111.5 79.484 111.656 78.932 111.584C78.38 111.488 77.912 111.248 77.528 110.864C77.144 110.48 76.892 110.012 76.772 109.46C76.652 108.908 76.7 108.356 76.916 107.804C77.132 107.252 77.564 106.784 78.212 106.4L83.18 103.304C83.708 102.968 84.248 102.716 84.8 102.548C85.376 102.38 85.976 102.296 86.6 102.296C87.512 102.296 88.22 102.536 88.724 103.016C89.228 103.472 89.48 104.144 89.48 105.032V122.636H92.36C93.248 122.636 93.92 122.864 94.376 123.32C94.856 123.776 95.096 124.436 95.096 125.3C95.096 126.164 94.856 126.836 94.376 127.316C93.92 127.772 93.248 128 92.36 128H79.652Z" fill="white"/>
<circle cx="530" cy="268" r="35" fill="#50A95E"/>
<path d="M528.8 278.396C526.76 278.396 524.996 278.108 523.508 277.532C522.02 276.932 520.88 276.08 520.088 274.976C519.296 273.872 518.9 272.564 518.9 271.052C518.9 269.828 519.14 268.748 519.62 267.812C520.124 266.876 520.808 266.12 521.672 265.544C522.536 264.944 523.52 264.584 524.624 264.464V265.508C523.136 265.196 521.924 264.464 520.988 263.312C520.052 262.16 519.584 260.78 519.584 259.172C519.584 257.708 519.956 256.46 520.7 255.428C521.444 254.396 522.512 253.604 523.904 253.052C525.296 252.5 526.928 252.224 528.8 252.224C530.696 252.224 532.328 252.5 533.696 253.052C535.088 253.604 536.156 254.396 536.9 255.428C537.644 256.46 538.016 257.708 538.016 259.172C538.016 260.252 537.8 261.248 537.368 262.16C536.96 263.048 536.384 263.78 535.64 264.356C534.92 264.932 534.08 265.304 533.12 265.472V264.464C534.752 264.704 536.084 265.424 537.116 266.624C538.172 267.8 538.7 269.276 538.7 271.052C538.7 272.564 538.304 273.872 537.512 274.976C536.72 276.08 535.58 276.932 534.092 277.532C532.628 278.108 530.864 278.396 528.8 278.396ZM528.8 273.428C530.072 273.428 531.044 273.188 531.716 272.708C532.388 272.204 532.724 271.484 532.724 270.548C532.724 269.588 532.388 268.868 531.716 268.388C531.044 267.908 530.072 267.668 528.8 267.668C527.528 267.668 526.556 267.908 525.884 268.388C525.212 268.868 524.876 269.588 524.876 270.548C524.876 271.484 525.212 272.204 525.884 272.708C526.556 273.188 527.528 273.428 528.8 273.428ZM528.8 262.664C529.496 262.664 530.084 262.556 530.564 262.34C531.044 262.124 531.404 261.812 531.644 261.404C531.908 260.972 532.04 260.48 532.04 259.928C532.04 259.088 531.752 258.428 531.176 257.948C530.6 257.444 529.808 257.192 528.8 257.192C527.792 257.192 527 257.444 526.424 257.948C525.872 258.428 525.596 259.088 525.596 259.928C525.596 260.768 525.872 261.44 526.424 261.944C527 262.424 527.792 262.664 528.8 262.664Z" fill="white"/>
<circle cx="675" cy="269" r="35" fill="#50A95E"/>
<path d="M671.568 279.396C670.584 279.396 669.588 279.276 668.58 279.036C667.572 278.796 666.612 278.436 665.7 277.956C665.124 277.668 664.728 277.284 664.512 276.804C664.296 276.3 664.212 275.784 664.26 275.256C664.332 274.704 664.524 274.224 664.836 273.816C665.148 273.384 665.556 273.084 666.06 272.916C666.588 272.748 667.176 272.808 667.824 273.096C668.544 273.432 669.216 273.66 669.84 273.78C670.464 273.9 671.064 273.96 671.64 273.96C672.84 273.96 673.836 273.72 674.628 273.24C675.444 272.736 676.044 271.992 676.428 271.008C676.836 270 677.04 268.752 677.04 267.264V265.392H677.58C677.388 266.4 676.992 267.276 676.392 268.02C675.816 268.764 675.096 269.328 674.232 269.712C673.392 270.096 672.444 270.288 671.388 270.288C669.996 270.288 668.736 269.94 667.608 269.244C666.504 268.524 665.628 267.54 664.98 266.292C664.332 265.02 664.008 263.604 664.008 262.044C664.008 260.316 664.38 258.792 665.124 257.472C665.868 256.152 666.9 255.12 668.22 254.376C669.564 253.608 671.088 253.224 672.792 253.224C675.024 253.224 676.908 253.728 678.444 254.736C680.004 255.744 681.192 257.208 682.008 259.128C682.824 261.024 683.232 263.34 683.232 266.076C683.232 268.164 682.968 270.036 682.44 271.692C681.912 273.348 681.144 274.752 680.136 275.904C679.128 277.032 677.904 277.896 676.464 278.496C675.024 279.096 673.392 279.396 671.568 279.396ZM673.152 265.248C673.776 265.248 674.316 265.104 674.772 264.816C675.252 264.504 675.612 264.096 675.852 263.592C676.116 263.064 676.248 262.452 676.248 261.756C676.248 261.036 676.116 260.412 675.852 259.884C675.612 259.356 675.252 258.96 674.772 258.696C674.316 258.408 673.776 258.264 673.152 258.264C672.528 258.264 671.988 258.408 671.532 258.696C671.076 258.96 670.716 259.356 670.452 259.884C670.188 260.412 670.056 261.036 670.056 261.756C670.056 262.452 670.188 263.064 670.452 263.592C670.716 264.096 671.076 264.504 671.532 264.816C671.988 265.104 672.528 265.248 673.152 265.248Z" fill="white"/>
<circle cx="74" cy="451" r="35" fill="#50A95E"/>
<path d="M57.652 462C56.764 462 56.08 461.772 55.6 461.316C55.144 460.836 54.916 460.164 54.916 459.3C54.916 458.436 55.144 457.776 55.6 457.32C56.08 456.864 56.764 456.636 57.652 456.636H60.892V441.912H63.916L58.696 445.116C58.072 445.5 57.484 445.656 56.932 445.584C56.38 445.488 55.912 445.248 55.528 444.864C55.144 444.48 54.892 444.012 54.772 443.46C54.652 442.908 54.7 442.356 54.916 441.804C55.132 441.252 55.564 440.784 56.212 440.4L61.18 437.304C61.708 436.968 62.248 436.716 62.8 436.548C63.376 436.38 63.976 436.296 64.6 436.296C65.512 436.296 66.22 436.536 66.724 437.016C67.228 437.472 67.48 438.144 67.48 439.032V456.636H70.36C71.248 456.636 71.92 456.864 72.376 457.32C72.856 457.776 73.096 458.436 73.096 459.3C73.096 460.164 72.856 460.836 72.376 461.316C71.92 461.772 71.248 462 70.36 462H57.652ZM84.3859 462.396C81.2659 462.396 78.8659 461.256 77.1859 458.976C75.5299 456.672 74.7019 453.42 74.7019 449.22C74.7019 446.388 75.0739 444.012 75.8179 442.092C76.5619 440.148 77.6539 438.684 79.0939 437.7C80.5339 436.716 82.2979 436.224 84.3859 436.224C87.5299 436.224 89.9299 437.328 91.5859 439.536C93.2419 441.744 94.0699 444.96 94.0699 449.184C94.0699 451.992 93.6979 454.38 92.9539 456.348C92.2099 458.316 91.1179 459.816 89.6779 460.848C88.2379 461.88 86.4739 462.396 84.3859 462.396ZM84.3859 457.14C85.5379 457.14 86.3899 456.516 86.9419 455.268C87.5179 453.996 87.8059 451.968 87.8059 449.184C87.8059 446.424 87.5179 444.456 86.9419 443.28C86.3899 442.08 85.5379 441.48 84.3859 441.48C83.2339 441.48 82.3699 442.08 81.7939 443.28C81.2419 444.456 80.9659 446.424 80.9659 449.184C80.9659 451.968 81.2419 453.996 81.7939 455.268C82.3699 456.516 83.2339 457.14 84.3859 457.14Z" fill="white"/>
<circle cx="243" cy="451" r="35" fill="#C75050"/>
<path d="M226.652 462C225.764 462 225.08 461.772 224.6 461.316C224.144 460.836 223.916 460.164 223.916 459.3C223.916 458.436 224.144 457.776 224.6 457.32C225.08 456.864 225.764 456.636 226.652 456.636H229.892V441.912H232.916L227.696 445.116C227.072 445.5 226.484 445.656 225.932 445.584C225.38 445.488 224.912 445.248 224.528 444.864C224.144 444.48 223.892 444.012 223.772 443.46C223.652 442.908 223.7 442.356 223.916 441.804C224.132 441.252 224.564 440.784 225.212 440.4L230.18 437.304C230.708 436.968 231.248 436.716 231.8 436.548C232.376 436.38 232.976 436.296 233.6 436.296C234.512 436.296 235.22 436.536 235.724 437.016C236.228 437.472 236.48 438.144 236.48 439.032V456.636H239.36C240.248 456.636 240.92 456.864 241.376 457.32C241.856 457.776 242.096 458.436 242.096 459.3C242.096 460.164 241.856 460.836 241.376 461.316C240.92 461.772 240.248 462 239.36 462H226.652ZM248.238 462C247.35 462 246.666 461.772 246.186 461.316C245.73 460.836 245.502 460.164 245.502 459.3C245.502 458.436 245.73 457.776 246.186 457.32C246.666 456.864 247.35 456.636 248.238 456.636H251.478V441.912H254.502L249.282 445.116C248.658 445.5 248.07 445.656 247.518 445.584C246.966 445.488 246.498 445.248 246.114 444.864C245.73 444.48 245.478 444.012 245.358 443.46C245.238 442.908 245.286 442.356 245.502 441.804C245.718 441.252 246.15 440.784 246.798 440.4L251.766 437.304C252.294 436.968 252.834 436.716 253.386 436.548C253.962 436.38 254.562 436.296 255.186 436.296C256.098 436.296 256.806 436.536 257.31 437.016C257.814 437.472 258.066 438.144 258.066 439.032V456.636H260.946C261.834 456.636 262.506 456.864 262.962 457.32C263.442 457.776 263.682 458.436 263.682 459.3C263.682 460.164 263.442 460.836 262.962 461.316C262.506 461.772 261.834 462 260.946 462H248.238Z" fill="white"/>
<circle cx="363" cy="379" r="35" fill="#50A95E"/>
<path d="M346.652 390C345.764 390 345.08 389.772 344.6 389.316C344.144 388.836 343.916 388.164 343.916 387.3C343.916 386.436 344.144 385.776 344.6 385.32C345.08 384.864 345.764 384.636 346.652 384.636H349.892V369.912H352.916L347.696 373.116C347.072 373.5 346.484 373.656 345.932 373.584C345.38 373.488 344.912 373.248 344.528 372.864C344.144 372.48 343.892 372.012 343.772 371.46C343.652 370.908 343.7 370.356 343.916 369.804C344.132 369.252 344.564 368.784 345.212 368.4L350.18 365.304C350.708 364.968 351.248 364.716 351.8 364.548C352.376 364.38 352.976 364.296 353.6 364.296C354.512 364.296 355.22 364.536 355.724 365.016C356.228 365.472 356.48 366.144 356.48 367.032V384.636H359.36C360.248 384.636 360.92 384.864 361.376 385.32C361.856 385.776 362.096 386.436 362.096 387.3C362.096 388.164 361.856 388.836 361.376 389.316C360.92 389.772 360.248 390 359.36 390H346.652ZM367.77 390C366.714 390 365.946 389.76 365.466 389.28C365.01 388.776 364.782 388.044 364.782 387.084C364.782 386.412 364.926 385.812 365.214 385.284C365.526 384.756 365.922 384.24 366.402 383.736L372.702 377.148C373.638 376.14 374.298 375.276 374.682 374.556C375.09 373.836 375.294 373.116 375.294 372.396C375.294 371.484 374.994 370.8 374.394 370.344C373.794 369.888 372.93 369.66 371.802 369.66C371.226 369.66 370.614 369.744 369.966 369.912C369.318 370.056 368.622 370.32 367.878 370.704C367.23 370.992 366.642 371.076 366.114 370.956C365.61 370.836 365.178 370.572 364.818 370.164C364.482 369.756 364.266 369.288 364.17 368.76C364.098 368.232 364.182 367.716 364.422 367.212C364.662 366.684 365.094 366.252 365.718 365.916C366.822 365.316 367.962 364.884 369.138 364.62C370.338 364.356 371.538 364.224 372.738 364.224C374.706 364.224 376.35 364.512 377.67 365.088C379.014 365.664 380.034 366.504 380.73 367.608C381.426 368.688 381.774 370.032 381.774 371.64C381.774 372.648 381.618 373.632 381.306 374.592C381.018 375.552 380.538 376.512 379.866 377.472C379.218 378.432 378.342 379.452 377.238 380.532L371.406 386.292V384.636H380.298C381.186 384.636 381.858 384.864 382.314 385.32C382.794 385.776 383.034 386.436 383.034 387.3C383.034 388.164 382.794 388.836 382.314 389.316C381.858 389.772 381.186 390 380.298 390H367.77Z" fill="white"/>
<circle cx="169" cy="600" r="35" fill="#C75050"/>
<path d="M152.652 611C151.764 611 151.08 610.772 150.6 610.316C150.144 609.836 149.916 609.164 149.916 608.3C149.916 607.436 150.144 606.776 150.6 606.32C151.08 605.864 151.764 605.636 152.652 605.636H155.892V590.912H158.916L153.696 594.116C153.072 594.5 152.484 594.656 151.932 594.584C151.38 594.488 150.912 594.248 150.528 593.864C150.144 593.48 149.892 593.012 149.772 592.46C149.652 591.908 149.7 591.356 149.916 590.804C150.132 590.252 150.564 589.784 151.212 589.4L156.18 586.304C156.708 585.968 157.248 585.716 157.8 585.548C158.376 585.38 158.976 585.296 159.6 585.296C160.512 585.296 161.22 585.536 161.724 586.016C162.228 586.472 162.48 587.144 162.48 588.032V605.636H165.36C166.248 605.636 166.92 605.864 167.376 606.32C167.856 606.776 168.096 607.436 168.096 608.3C168.096 609.164 167.856 609.836 167.376 610.316C166.92 610.772 166.248 611 165.36 611H152.652ZM173.77 611C172.714 611 171.946 610.76 171.466 610.28C171.01 609.776 170.782 609.044 170.782 608.084C170.782 607.412 170.926 606.812 171.214 606.284C171.526 605.756 171.922 605.24 172.402 604.736L178.702 598.148C179.638 597.14 180.298 596.276 180.682 595.556C181.09 594.836 181.294 594.116 181.294 593.396C181.294 592.484 180.994 591.8 180.394 591.344C179.794 590.888 178.93 590.66 177.802 590.66C177.226 590.66 176.614 590.744 175.966 590.912C175.318 591.056 174.622 591.32 173.878 591.704C173.23 591.992 172.642 592.076 172.114 591.956C171.61 591.836 171.178 591.572 170.818 591.164C170.482 590.756 170.266 590.288 170.17 589.76C170.098 589.232 170.182 588.716 170.422 588.212C170.662 587.684 171.094 587.252 171.718 586.916C172.822 586.316 173.962 585.884 175.138 585.62C176.338 585.356 177.538 585.224 178.738 585.224C180.706 585.224 182.35 585.512 183.67 586.088C185.014 586.664 186.034 587.504 186.73 588.608C187.426 589.688 187.774 591.032 187.774 592.64C187.774 593.648 187.618 594.632 187.306 595.592C187.018 596.552 186.538 597.512 185.866 598.472C185.218 599.432 184.342 600.452 183.238 601.532L177.406 607.292V605.636H186.298C187.186 605.636 187.858 605.864 188.314 606.32C188.794 606.776 189.034 607.436 189.034 608.3C189.034 609.164 188.794 609.836 188.314 610.316C187.858 610.772 187.186 611 186.298 611H173.77Z" fill="white"/>
<circle cx="372" cy="600" r="35" fill="#50A95E"/>
<path d="M355.652 611C354.764 611 354.08 610.772 353.6 610.316C353.144 609.836 352.916 609.164 352.916 608.3C352.916 607.436 353.144 606.776 353.6 606.32C354.08 605.864 354.764 605.636 355.652 605.636H358.892V590.912H361.916L356.696 594.116C356.072 594.5 355.484 594.656 354.932 594.584C354.38 594.488 353.912 594.248 353.528 593.864C353.144 593.48 352.892 593.012 352.772 592.46C352.652 591.908 352.7 591.356 352.916 590.804C353.132 590.252 353.564 589.784 354.212 589.4L359.18 586.304C359.708 585.968 360.248 585.716 360.8 585.548C361.376 585.38 361.976 585.296 362.6 585.296C363.512 585.296 364.22 585.536 364.724 586.016C365.228 586.472 365.48 587.144 365.48 588.032V605.636H368.36C369.248 605.636 369.92 605.864 370.376 606.32C370.856 606.776 371.096 607.436 371.096 608.3C371.096 609.164 370.856 609.836 370.376 610.316C369.92 610.772 369.248 611 368.36 611H355.652ZM381.63 611.396C380.406 611.396 379.182 611.276 377.958 611.036C376.734 610.796 375.678 610.46 374.79 610.028C374.022 609.668 373.482 609.224 373.17 608.696C372.882 608.168 372.762 607.628 372.81 607.076C372.858 606.524 373.05 606.032 373.386 605.6C373.746 605.168 374.202 604.88 374.754 604.736C375.33 604.568 375.978 604.64 376.698 604.952C377.586 605.336 378.402 605.6 379.146 605.744C379.89 605.888 380.634 605.96 381.378 605.96C382.242 605.96 382.962 605.864 383.538 605.672C384.114 605.48 384.546 605.192 384.834 604.808C385.122 604.4 385.266 603.896 385.266 603.296C385.266 602.456 384.966 601.844 384.366 601.46C383.79 601.052 382.938 600.848 381.81 600.848H379.866C378.954 600.848 378.258 600.62 377.778 600.164C377.298 599.708 377.058 599.06 377.058 598.22C377.058 597.38 377.298 596.732 377.778 596.276C378.258 595.82 378.954 595.592 379.866 595.592H381.162C381.858 595.592 382.446 595.496 382.926 595.304C383.43 595.112 383.814 594.836 384.078 594.476C384.342 594.092 384.474 593.624 384.474 593.072C384.474 592.28 384.186 591.68 383.61 591.272C383.058 590.864 382.23 590.66 381.126 590.66C380.454 590.66 379.77 590.732 379.074 590.876C378.378 591.02 377.634 591.272 376.842 591.632C376.218 591.896 375.642 591.956 375.114 591.812C374.61 591.668 374.19 591.392 373.854 590.984C373.542 590.552 373.35 590.084 373.278 589.58C373.206 589.052 373.29 588.536 373.53 588.032C373.77 587.528 374.226 587.108 374.898 586.772C375.906 586.268 376.998 585.884 378.174 585.62C379.374 585.356 380.574 585.224 381.774 585.224C383.67 585.224 385.29 585.5 386.634 586.052C387.978 586.604 388.998 587.408 389.694 588.464C390.414 589.496 390.774 590.744 390.774 592.208C390.774 593.168 390.594 594.056 390.234 594.872C389.874 595.688 389.346 596.372 388.65 596.924C387.954 597.452 387.138 597.836 386.202 598.076V597.572C387.882 597.836 389.19 598.544 390.126 599.696C391.086 600.824 391.566 602.24 391.566 603.944C391.566 605.48 391.17 606.812 390.378 607.94C389.586 609.068 388.446 609.932 386.958 610.532C385.47 611.108 383.694 611.396 381.63 611.396Z" fill="white"/>
<circle cx="575" cy="600" r="35" fill="#C75050"/>
<path d="M558.652 611C557.764 611 557.08 610.772 556.6 610.316C556.144 609.836 555.916 609.164 555.916 608.3C555.916 607.436 556.144 606.776 556.6 606.32C557.08 605.864 557.764 605.636 558.652 605.636H561.892V590.912H564.916L559.696 594.116C559.072 594.5 558.484 594.656 557.932 594.584C557.38 594.488 556.912 594.248 556.528 593.864C556.144 593.48 555.892 593.012 555.772 592.46C555.652 591.908 555.7 591.356 555.916 590.804C556.132 590.252 556.564 589.784 557.212 589.4L562.18 586.304C562.708 585.968 563.248 585.716 563.8 585.548C564.376 585.38 564.976 585.296 565.6 585.296C566.512 585.296 567.22 585.536 567.724 586.016C568.228 586.472 568.48 587.144 568.48 588.032V605.636H571.36C572.248 605.636 572.92 605.864 573.376 606.32C573.856 606.776 574.096 607.436 574.096 608.3C574.096 609.164 573.856 609.836 573.376 610.316C572.92 610.772 572.248 611 571.36 611H558.652ZM589.202 611.324C588.194 611.324 587.402 611.048 586.826 610.496C586.274 609.944 585.998 609.128 585.998 608.048V606.752H578.762C577.706 606.752 576.878 606.512 576.278 606.032C575.702 605.552 575.414 604.82 575.414 603.836C575.414 603.26 575.522 602.708 575.738 602.18C575.954 601.628 576.338 600.968 576.89 600.2L585.674 587.384C586.154 586.664 586.694 586.136 587.294 585.8C587.894 585.464 588.602 585.296 589.418 585.296C590.33 585.296 591.05 585.572 591.578 586.124C592.106 586.652 592.37 587.468 592.37 588.572V601.748H593.234C594.146 601.748 594.83 601.964 595.286 602.396C595.766 602.828 596.006 603.44 596.006 604.232C596.006 605.048 595.766 605.672 595.286 606.104C594.83 606.536 594.146 606.752 593.234 606.752H592.37V608.048C592.37 609.104 592.094 609.92 591.542 610.496C591.014 611.048 590.234 611.324 589.202 611.324ZM585.998 601.748V593.252H587.006L580.238 603.296V601.748H585.998Z" fill="white"/>
<circle cx="674" cy="451" r="35" fill="#C75050"/>
<path d="M657.652 462C656.764 462 656.08 461.772 655.6 461.316C655.144 460.836 654.916 460.164 654.916 459.3C654.916 458.436 655.144 457.776 655.6 457.32C656.08 456.864 656.764 456.636 657.652 456.636H660.892V441.912H663.916L658.696 445.116C658.072 445.5 657.484 445.656 656.932 445.584C656.38 445.488 655.912 445.248 655.528 444.864C655.144 444.48 654.892 444.012 654.772 443.46C654.652 442.908 654.7 442.356 654.916 441.804C655.132 441.252 655.564 440.784 656.212 440.4L661.18 437.304C661.708 436.968 662.248 436.716 662.8 436.548C663.376 436.38 663.976 436.296 664.6 436.296C665.512 436.296 666.22 436.536 666.724 437.016C667.228 437.472 667.48 438.144 667.48 439.032V456.636H670.36C671.248 456.636 671.92 456.864 672.376 457.32C672.856 457.776 673.096 458.436 673.096 459.3C673.096 460.164 672.856 460.836 672.376 461.316C671.92 461.772 671.248 462 670.36 462H657.652ZM684.206 462.396C683.054 462.396 681.842 462.264 680.57 462C679.298 461.736 678.122 461.328 677.042 460.776C676.394 460.44 675.938 460.008 675.674 459.48C675.434 458.928 675.35 458.376 675.422 457.824C675.518 457.272 675.734 456.78 676.07 456.348C676.43 455.916 676.874 455.64 677.402 455.52C677.954 455.376 678.554 455.472 679.202 455.808C679.994 456.192 680.81 456.48 681.65 456.672C682.514 456.864 683.318 456.96 684.062 456.96C684.878 456.96 685.574 456.84 686.15 456.6C686.726 456.36 687.158 456.012 687.446 455.556C687.758 455.1 687.914 454.56 687.914 453.936C687.914 452.976 687.59 452.22 686.942 451.668C686.294 451.116 685.43 450.84 684.35 450.84C683.87 450.84 683.342 450.912 682.766 451.056C682.214 451.2 681.638 451.476 681.038 451.884C680.774 452.028 680.414 452.196 679.958 452.388C679.502 452.556 679.034 452.64 678.554 452.64C677.69 452.64 677.054 452.436 676.646 452.028C676.238 451.62 676.034 451.044 676.034 450.3V439.428C676.034 438.516 676.274 437.82 676.754 437.34C677.258 436.86 677.954 436.62 678.842 436.62H690.146C691.034 436.62 691.718 436.848 692.198 437.304C692.678 437.76 692.918 438.432 692.918 439.32C692.918 440.184 692.678 440.844 692.198 441.3C691.718 441.756 691.034 441.984 690.146 441.984H682.262V447.636H680.75C681.326 446.964 682.082 446.46 683.018 446.124C683.954 445.764 684.974 445.584 686.078 445.584C687.686 445.584 689.102 445.932 690.326 446.628C691.55 447.3 692.498 448.248 693.17 449.472C693.866 450.696 694.214 452.124 694.214 453.756C694.214 455.484 693.806 457.008 692.99 458.328C692.198 459.624 691.046 460.632 689.534 461.352C688.046 462.048 686.27 462.396 684.206 462.396Z" fill="white"/>
<circle cx="505" cy="451" r="35" fill="#50A95E"/>
<path d="M488.652 462C487.764 462 487.08 461.772 486.6 461.316C486.144 460.836 485.916 460.164 485.916 459.3C485.916 458.436 486.144 457.776 486.6 457.32C487.08 456.864 487.764 456.636 488.652 456.636H491.892V441.912H494.916L489.696 445.116C489.072 445.5 488.484 445.656 487.932 445.584C487.38 445.488 486.912 445.248 486.528 444.864C486.144 444.48 485.892 444.012 485.772 443.46C485.652 442.908 485.7 442.356 485.916 441.804C486.132 441.252 486.564 440.784 487.212 440.4L492.18 437.304C492.708 436.968 493.248 436.716 493.8 436.548C494.376 436.38 494.976 436.296 495.6 436.296C496.512 436.296 497.22 436.536 497.724 437.016C498.228 437.472 498.48 438.144 498.48 439.032V456.636H501.36C502.248 456.636 502.92 456.864 503.376 457.32C503.856 457.776 504.096 458.436 504.096 459.3C504.096 460.164 503.856 460.836 503.376 461.316C502.92 461.772 502.248 462 501.36 462H488.652ZM516.394 462.396C514.162 462.396 512.266 461.892 510.706 460.884C509.17 459.876 507.994 458.424 507.178 456.528C506.362 454.608 505.954 452.28 505.954 449.544C505.954 447.456 506.218 445.584 506.746 443.928C507.274 442.272 508.042 440.88 509.05 439.752C510.058 438.6 511.282 437.724 512.722 437.124C514.162 436.524 515.794 436.224 517.618 436.224C518.602 436.224 519.598 436.344 520.606 436.584C521.614 436.824 522.574 437.184 523.486 437.664C524.062 437.952 524.458 438.348 524.674 438.852C524.89 439.332 524.962 439.848 524.89 440.4C524.842 440.928 524.662 441.408 524.35 441.84C524.038 442.248 523.618 442.536 523.09 442.704C522.586 442.872 522.01 442.812 521.362 442.524C520.642 442.188 519.97 441.96 519.346 441.84C518.722 441.72 518.122 441.66 517.546 441.66C516.346 441.66 515.35 441.912 514.558 442.416C513.766 442.896 513.166 443.64 512.758 444.648C512.35 445.632 512.146 446.868 512.146 448.356V450.228H511.606C511.822 449.196 512.218 448.32 512.794 447.6C513.37 446.856 514.078 446.292 514.918 445.908C515.782 445.524 516.742 445.332 517.798 445.332C519.214 445.332 520.474 445.692 521.578 446.412C522.682 447.108 523.558 448.08 524.206 449.328C524.854 450.576 525.178 451.992 525.178 453.576C525.178 455.304 524.806 456.828 524.062 458.148C523.318 459.468 522.286 460.512 520.966 461.28C519.646 462.024 518.122 462.396 516.394 462.396ZM516.034 457.356C516.658 457.356 517.198 457.212 517.654 456.924C518.134 456.636 518.494 456.228 518.734 455.7C518.998 455.172 519.13 454.56 519.13 453.864C519.13 453.144 518.998 452.532 518.734 452.028C518.494 451.5 518.134 451.092 517.654 450.804C517.198 450.492 516.658 450.336 516.034 450.336C515.434 450.336 514.894 450.492 514.414 450.804C513.958 451.092 513.598 451.5 513.334 452.028C513.07 452.532 512.938 453.144 512.938 453.864C512.938 454.56 513.07 455.172 513.334 455.7C513.598 456.228 513.958 456.636 514.414 456.924C514.894 457.212 515.434 457.356 516.034 457.356Z" fill="white"/>
<circle cx="363" cy="211" r="35" fill="#50A95E"/>
<path d="M357.372 221.324C356.556 221.324 355.896 221.144 355.392 220.784C354.888 220.4 354.6 219.896 354.528 219.272C354.456 218.648 354.624 217.964 355.032 217.22L365.004 199.112V201.02H354.888C354 201.02 353.304 200.792 352.8 200.336C352.32 199.88 352.08 199.208 352.08 198.32C352.08 197.432 352.32 196.76 352.8 196.304C353.304 195.848 354 195.62 354.888 195.62H368.424C369.312 195.62 370.044 195.86 370.62 196.34C371.22 196.82 371.52 197.504 371.52 198.392C371.52 199.16 371.4 199.832 371.16 200.408C370.944 200.96 370.668 201.548 370.332 202.172L361.116 219.236C360.732 219.98 360.24 220.52 359.64 220.856C359.064 221.168 358.308 221.324 357.372 221.324Z" fill="white"/>
<circle cx="482" cy="118" r="35" fill="#C75050"/>
<path d="M480.044 128.396C478.82 128.396 477.596 128.276 476.372 128.036C475.148 127.796 474.092 127.46 473.204 127.028C472.436 126.668 471.896 126.224 471.584 125.696C471.296 125.168 471.176 124.628 471.224 124.076C471.272 123.524 471.464 123.032 471.8 122.6C472.16 122.168 472.616 121.88 473.168 121.736C473.744 121.568 474.392 121.64 475.112 121.952C476 122.336 476.816 122.6 477.56 122.744C478.304 122.888 479.048 122.96 479.792 122.96C480.656 122.96 481.376 122.864 481.952 122.672C482.528 122.48 482.96 122.192 483.248 121.808C483.536 121.4 483.68 120.896 483.68 120.296C483.68 119.456 483.38 118.844 482.78 118.46C482.204 118.052 481.352 117.848 480.224 117.848H478.28C477.368 117.848 476.672 117.62 476.192 117.164C475.712 116.708 475.472 116.06 475.472 115.22C475.472 114.38 475.712 113.732 476.192 113.276C476.672 112.82 477.368 112.592 478.28 112.592H479.576C480.272 112.592 480.86 112.496 481.34 112.304C481.844 112.112 482.228 111.836 482.492 111.476C482.756 111.092 482.888 110.624 482.888 110.072C482.888 109.28 482.6 108.68 482.024 108.272C481.472 107.864 480.644 107.66 479.54 107.66C478.868 107.66 478.184 107.732 477.488 107.876C476.792 108.02 476.048 108.272 475.256 108.632C474.632 108.896 474.056 108.956 473.528 108.812C473.024 108.668 472.604 108.392 472.268 107.984C471.956 107.552 471.764 107.084 471.692 106.58C471.62 106.052 471.704 105.536 471.944 105.032C472.184 104.528 472.64 104.108 473.312 103.772C474.32 103.268 475.412 102.884 476.588 102.62C477.788 102.356 478.988 102.224 480.188 102.224C482.084 102.224 483.704 102.5 485.048 103.052C486.392 103.604 487.412 104.408 488.108 105.464C488.828 106.496 489.188 107.744 489.188 109.208C489.188 110.168 489.008 111.056 488.648 111.872C488.288 112.688 487.76 113.372 487.064 113.924C486.368 114.452 485.552 114.836 484.616 115.076V114.572C486.296 114.836 487.604 115.544 488.54 116.696C489.5 117.824 489.98 119.24 489.98 120.944C489.98 122.48 489.584 123.812 488.792 124.94C488 126.068 486.86 126.932 485.372 127.532C483.884 128.108 482.108 128.396 480.044 128.396Z" fill="white"/>
<circle cx="673" cy="118" r="35" fill="#50A95E"/>
<path d="M675.616 128.324C674.608 128.324 673.816 128.048 673.24 127.496C672.688 126.944 672.412 126.128 672.412 125.048V123.752H665.176C664.12 123.752 663.292 123.512 662.692 123.032C662.116 122.552 661.828 121.82 661.828 120.836C661.828 120.26 661.936 119.708 662.152 119.18C662.368 118.628 662.752 117.968 663.304 117.2L672.088 104.384C672.568 103.664 673.108 103.136 673.708 102.8C674.308 102.464 675.016 102.296 675.832 102.296C676.744 102.296 677.464 102.572 677.992 103.124C678.52 103.652 678.784 104.468 678.784 105.572V118.748H679.648C680.56 118.748 681.244 118.964 681.7 119.396C682.18 119.828 682.42 120.44 682.42 121.232C682.42 122.048 682.18 122.672 681.7 123.104C681.244 123.536 680.56 123.752 679.648 123.752H678.784V125.048C678.784 126.104 678.508 126.92 677.956 127.496C677.428 128.048 676.648 128.324 675.616 128.324ZM672.412 118.748V110.252H673.42L666.652 120.296V118.748H672.412Z" fill="white"/>
<circle cx="80" cy="269" r="35" fill="#50A95E"/>
<path d="M78.62 279.396C77.468 279.396 76.256 279.264 74.984 279C73.712 278.736 72.536 278.328 71.456 277.776C70.808 277.44 70.352 277.008 70.088 276.48C69.848 275.928 69.764 275.376 69.836 274.824C69.932 274.272 70.148 273.78 70.484 273.348C70.844 272.916 71.288 272.64 71.816 272.52C72.368 272.376 72.968 272.472 73.616 272.808C74.408 273.192 75.224 273.48 76.064 273.672C76.928 273.864 77.732 273.96 78.476 273.96C79.292 273.96 79.988 273.84 80.564 273.6C81.14 273.36 81.572 273.012 81.86 272.556C82.172 272.1 82.328 271.56 82.328 270.936C82.328 269.976 82.004 269.22 81.356 268.668C80.708 268.116 79.844 267.84 78.764 267.84C78.284 267.84 77.756 267.912 77.18 268.056C76.628 268.2 76.052 268.476 75.452 268.884C75.188 269.028 74.828 269.196 74.372 269.388C73.916 269.556 73.448 269.64 72.968 269.64C72.104 269.64 71.468 269.436 71.06 269.028C70.652 268.62 70.448 268.044 70.448 267.3V256.428C70.448 255.516 70.688 254.82 71.168 254.34C71.672 253.86 72.368 253.62 73.256 253.62H84.56C85.448 253.62 86.132 253.848 86.612 254.304C87.092 254.76 87.332 255.432 87.332 256.32C87.332 257.184 87.092 257.844 86.612 258.3C86.132 258.756 85.448 258.984 84.56 258.984H76.676V264.636H75.164C75.74 263.964 76.496 263.46 77.432 263.124C78.368 262.764 79.388 262.584 80.492 262.584C82.1 262.584 83.516 262.932 84.74 263.628C85.964 264.3 86.912 265.248 87.584 266.472C88.28 267.696 88.628 269.124 88.628 270.756C88.628 272.484 88.22 274.008 87.404 275.328C86.612 276.624 85.46 277.632 83.948 278.352C82.46 279.048 80.684 279.396 78.62 279.396Z" fill="white"/>
<circle cx="232" cy="269" r="35" fill="#50A95E"/>
<path d="M231.808 279.396C229.576 279.396 227.68 278.892 226.12 277.884C224.584 276.876 223.408 275.424 222.592 273.528C221.776 271.608 221.368 269.28 221.368 266.544C221.368 264.456 221.632 262.584 222.16 260.928C222.688 259.272 223.456 257.88 224.464 256.752C225.472 255.6 226.696 254.724 228.136 254.124C229.576 253.524 231.208 253.224 233.032 253.224C234.016 253.224 235.012 253.344 236.02 253.584C237.028 253.824 237.988 254.184 238.9 254.664C239.476 254.952 239.872 255.348 240.088 255.852C240.304 256.332 240.376 256.848 240.304 257.4C240.256 257.928 240.076 258.408 239.764 258.84C239.452 259.248 239.032 259.536 238.504 259.704C238 259.872 237.424 259.812 236.776 259.524C236.056 259.188 235.384 258.96 234.76 258.84C234.136 258.72 233.536 258.66 232.96 258.66C231.76 258.66 230.764 258.912 229.972 259.416C229.18 259.896 228.58 260.64 228.172 261.648C227.764 262.632 227.56 263.868 227.56 265.356V267.228H227.02C227.236 266.196 227.632 265.32 228.208 264.6C228.784 263.856 229.492 263.292 230.332 262.908C231.196 262.524 232.156 262.332 233.212 262.332C234.628 262.332 235.888 262.692 236.992 263.412C238.096 264.108 238.972 265.08 239.62 266.328C240.268 267.576 240.592 268.992 240.592 270.576C240.592 272.304 240.22 273.828 239.476 275.148C238.732 276.468 237.7 277.512 236.38 278.28C235.06 279.024 233.536 279.396 231.808 279.396ZM231.448 274.356C232.072 274.356 232.612 274.212 233.068 273.924C233.548 273.636 233.908 273.228 234.148 272.7C234.412 272.172 234.544 271.56 234.544 270.864C234.544 270.144 234.412 269.532 234.148 269.028C233.908 268.5 233.548 268.092 233.068 267.804C232.612 267.492 232.072 267.336 231.448 267.336C230.848 267.336 230.308 267.492 229.828 267.804C229.372 268.092 229.012 268.5 228.748 269.028C228.484 269.532 228.352 270.144 228.352 270.864C228.352 271.56 228.484 272.172 228.748 272.7C229.012 273.228 229.372 273.636 229.828 273.924C230.308 274.212 230.848 274.356 231.448 274.356Z" fill="white"/>
<circle cx="267" cy="118" r="35" fill="#50A95E"/>
<path d="M261.184 129C260.128 129 259.36 128.76 258.88 128.28C258.424 127.776 258.196 127.044 258.196 126.084C258.196 125.412 258.34 124.812 258.628 124.284C258.94 123.756 259.336 123.24 259.816 122.736L266.116 116.148C267.052 115.14 267.712 114.276 268.096 113.556C268.504 112.836 268.708 112.116 268.708 111.396C268.708 110.484 268.408 109.8 267.808 109.344C267.208 108.888 266.344 108.66 265.216 108.66C264.64 108.66 264.028 108.744 263.38 108.912C262.732 109.056 262.036 109.32 261.292 109.704C260.644 109.992 260.056 110.076 259.528 109.956C259.024 109.836 258.592 109.572 258.232 109.164C257.896 108.756 257.68 108.288 257.584 107.76C257.512 107.232 257.596 106.716 257.836 106.212C258.076 105.684 258.508 105.252 259.132 104.916C260.236 104.316 261.376 103.884 262.552 103.62C263.752 103.356 264.952 103.224 266.152 103.224C268.12 103.224 269.764 103.512 271.084 104.088C272.428 104.664 273.448 105.504 274.144 106.608C274.84 107.688 275.188 109.032 275.188 110.64C275.188 111.648 275.032 112.632 274.72 113.592C274.432 114.552 273.952 115.512 273.28 116.472C272.632 117.432 271.756 118.452 270.652 119.532L264.82 125.292V123.636H273.712C274.6 123.636 275.272 123.864 275.728 124.32C276.208 124.776 276.448 125.436 276.448 126.3C276.448 127.164 276.208 127.836 275.728 128.316C275.272 128.772 274.6 129 273.712 129H261.184Z" fill="white"/>
<defs>
<filter id="filter0_d_15_795" x="0" y="0" width="743" height="698" filterUnits="userSpaceOnUse" color-interpolation-filters="sRGB">
<feFlood flood-opacity="0" result="BackgroundImageFix"/>
<feColorMatrix in="SourceAlpha" type="matrix" values="0 0 0 0 0 0 0 0 0 0 0 0 0 0 0 0 0 0 127 0" result="hardAlpha"/>
<feOffset dy="4"/>
<feGaussianBlur stdDeviation="10"/>
<feComposite in2="hardAlpha" operator="out"/>
<feColorMatrix type="matrix" values="0 0 0 0 0 0 0 0 0 0 0 0 0 0 0 0 0 0 0.38 0"/>
<feBlend mode="normal" in2="BackgroundImageFix" result="effect1_dropShadow_15_795"/>
<feBlend mode="normal" in="SourceGraphic" in2="effect1_dropShadow_15_795" result="shape"/>
</filter>
</defs>
</svg>
